<svg xmlns="http://www.w3.org/2000/svg" version="1.1" xmlns:xlink="http://www.w3.org/1999/xlink" width="1000" height="1000"><metadata><rdf:RDF xmlns:rdf="http://www.w3.org/1999/02/22-rdf-syntax-ns#" xmlns:dc="http://purl.org/dc/elements/1.1/"><rdf:Description><dc:creator>RealFaviconGenerator</dc:creator><dc:source>https://realfavicongenerator.net</dc:source></rdf:Description></rdf:RDF></metadata><g clip-path="url(#SvgjsClipPath1053)"><rect width="1000" height="1000" fill="#3b474b"></rect><g transform="matrix(3.90625,0,0,3.90625,0,0)"><svg xmlns="http://www.w3.org/2000/svg" version="1.1" width="256" height="256"><path d="M0 0 C2.45767104 -0.00434431 4.91349783 -0.04069043 7.37084961 -0.07861328 C40.91034776 -0.31695566 71.75524294 14.6061309 95.45776367 37.88623047 C111.85802003 54.49408501 123.30632283 75.73526038 128.92358398 98.37060547 C129.20395508 99.49873657 129.20395508 99.49873657 129.48999023 100.6496582 C131.25661116 108.87154352 131.29583724 117.07542825 131.29418945 125.44702148 C131.29853376 127.90469253 131.33487988 130.36051932 131.37280273 132.81787109 C131.61114512 166.35736924 116.68805855 197.20226443 93.40795898 220.90478516 C76.34533388 237.75412745 55.09816078 248.65087693 31.92358398 254.37060547 C30.89128662 254.65097656 30.89128662 254.65097656 29.83813477 254.93701172 C21.95341014 256.83653669 13.98616891 256.74279017 5.92260742 256.74121094 C3.4560649 256.74554835 0.99136979 256.78185957 -1.47485352 256.81982422 C-35.03430118 257.05767397 -65.88166286 242.15752224 -89.60620117 218.86376953 C-105.97726376 202.23716396 -117.53962263 181.04138459 -123.07641602 158.37060547 C-123.26187988 157.62141846 -123.44734375 156.87223145 -123.63842773 156.1003418 C-125.4068575 147.87422491 -125.44867015 139.67022863 -125.44702148 131.29418945 C-125.45136579 128.83651841 -125.48771191 126.38069162 -125.52563477 123.92333984 C-125.76397715 90.38384169 -110.84089058 59.53894651 -87.56079102 35.83642578 C-70.95293647 19.43616942 -49.71176111 7.98786662 -27.07641602 2.37060547 C-26.32432861 2.18369141 -25.57224121 1.99677734 -24.79736328 1.80419922 C-16.57547796 0.0375783 -8.37159324 -0.00164779 0 0 Z " fill="#3B474B" transform="translate(125.076416015625,-0.37060546875)"></path><path d="M0 0 C10.89 0 21.78 0 33 0 C33.97981368 4.89906839 33.83321291 6.68710501 32.5625 11.3125 C32.13130859 12.91544922 32.13130859 12.91544922 31.69140625 14.55078125 C31.46324219 15.35902344 31.23507813 16.16726562 31 17 C32.8253125 16.87625 32.8253125 16.87625 34.6875 16.75 C38.0726174 16.73799604 38.93868234 16.96086107 41.9375 18.875 C44.5910687 21.60897987 44.95036258 22.47384331 45.3125 26.3125 C44.94344069 30.6673999 44.27921697 32.14119546 41 35 C37.25 35.8125 37.25 35.8125 34 36 C33.38047189 41.01254562 33.34216331 45.1927933 35 50 C38.36666412 53.01227843 42.71038389 54.43326852 46.83203125 56.140625 C52.63350345 58.56215453 56.70183848 62.49559272 61 67 C61.55816406 67.53882812 62.11632812 68.07765625 62.69140625 68.6328125 C73.64567237 80.01609687 76.53102972 94.90660408 76.2421875 110.05078125 C75.6316326 126.09749401 68.30755734 140.73731099 56.59927368 151.6194458 C48.7898447 158.36084353 43.07306994 159.90188194 32.75 159.796875 C31.49670898 159.80261536 30.24341797 159.80835571 28.95214844 159.81427002 C25.64078969 159.81937314 22.3311505 159.79541575 19.02001953 159.76171875 C17.00107746 159.75000625 14.98369987 159.7616809 12.96484375 159.78222656 C9.05916815 159.81945074 5.15577422 159.81476433 1.25 159.796875 C0.05600586 159.80902039 -1.13798828 159.82116577 -2.36816406 159.8336792 C-12.27175447 159.66813748 -17.5121173 156.28907075 -24.625 149.75 C-38.28676242 135.32925078 -42.84903293 119.40191978 -42.375 99.98828125 C-41.56574845 84.76568158 -32.81174935 71.90318913 -22.1171875 61.59375 C-16.41506217 56.62057904 -8.68050709 51 -1 51 C-1 46.05 -1 41.1 -1 36 C-2.65 36 -4.3 36 -6 36 C-9.56645515 32.75056309 -10.80768275 31.21800922 -11.5625 26.4375 C-10.91429589 22.47625263 -9.81200626 20.81200626 -7 18 C-4.04335481 16.5216774 -1.25770263 16.93967217 2 17 C1.77183594 16.19175781 1.54367188 15.38351563 1.30859375 14.55078125 C1.02113281 13.48214844 0.73367187 12.41351563 0.4375 11.3125 C0.14746094 10.25675781 -0.14257812 9.20101562 -0.44140625 8.11328125 C-1 5 -1 5 0 0 Z " fill="#3B494C" transform="translate(111,56)"></path><path d="M0 0 C0.88494141 -0.020625 1.76988281 -0.04125 2.68164062 -0.0625 C7.52144741 -0.0915461 11.13585094 -0.11185044 14.9375 3.25 C20.10469104 12.54388969 18.66804129 24.58672482 15.90234375 34.375 C11.56387649 47.30257857 3.00234133 57.70856617 -9.0625 64.25 C-12.90579637 65.21201962 -16.56942405 65.30392835 -20.51953125 65.28515625 C-21.58435226 65.29896835 -22.64917328 65.31278046 -23.7462616 65.32701111 C-25.98579959 65.34481589 -28.22554581 65.34467574 -30.46508789 65.32739258 C-33.85871558 65.31257112 -37.24227568 65.38827155 -40.63476562 65.47070312 C-52.5353496 65.57713579 -60.82461592 65.09409901 -69.75634766 56.80297852 C-74.99057069 51.00853957 -78.87079321 45.38893837 -82.0625 38.25 C-82.454375 37.38375 -82.84625 36.5175 -83.25 35.625 C-86.64528488 25.70032111 -86.06053084 13.9433705 -83.109375 4.0078125 C-82.0625 2.25 -82.0625 2.25 -80.203125 1.3046875 C-77.2710108 1.22977947 -76.29483277 2.41691136 -74.0625 4.25 C-56.8400723 12.05792898 -36.15450811 6.28033014 -18.90478516 1.91430664 C-12.54021101 0.42676101 -6.50623893 0.03807601 0 0 Z " fill="#18EFB0" transform="translate(162.0625,143.75)"></path><path d="M0 0 C10.89 0 21.78 0 33 0 C33.97981368 4.89906839 33.83321291 6.68710501 32.5625 11.3125 C32.13130859 12.91544922 32.13130859 12.91544922 31.69140625 14.55078125 C31.46324219 15.35902344 31.23507813 16.16726562 31 17 C32.8253125 16.87625 32.8253125 16.87625 34.6875 16.75 C38.0726174 16.73799604 38.93868234 16.96086107 41.9375 18.875 C44.5910687 21.60897987 44.95036258 22.47384331 45.3125 26.3125 C44.94344069 30.6673999 44.27921697 32.14119546 41 35 C37.25 35.8125 37.25 35.8125 34 36 C33.38047189 41.01254562 33.34216331 45.1927933 35 50 C38.36666412 53.01227843 42.71038389 54.43326852 46.83203125 56.140625 C52.63350345 58.56215453 56.70183848 62.49559272 61 67 C61.55816406 67.53882812 62.11632812 68.07765625 62.69140625 68.6328125 C73.64567237 80.01609687 76.53102972 94.90660408 76.2421875 110.05078125 C75.6316326 126.09749401 68.30755734 140.73731099 56.59927368 151.6194458 C48.7898447 158.36084353 43.07306994 159.90188194 32.75 159.796875 C31.49670898 159.80261536 30.24341797 159.80835571 28.95214844 159.81427002 C25.64078969 159.81937314 22.3311505 159.79541575 19.02001953 159.76171875 C17.00107746 159.75000625 14.98369987 159.7616809 12.96484375 159.78222656 C9.05916815 159.81945074 5.15577422 159.81476433 1.25 159.796875 C0.05600586 159.80902039 -1.13798828 159.82116577 -2.36816406 159.8336792 C-12.27175447 159.66813748 -17.5121173 156.28907075 -24.625 149.75 C-38.28676242 135.32925078 -42.84903293 119.40191978 -42.375 99.98828125 C-41.56574845 84.76568158 -32.81174935 71.90318913 -22.1171875 61.59375 C-16.41506217 56.62057904 -8.68050709 51 -1 51 C-1 46.05 -1 41.1 -1 36 C-2.65 36 -4.3 36 -6 36 C-9.56645515 32.75056309 -10.80768275 31.21800922 -11.5625 26.4375 C-10.91429589 22.47625263 -9.81200626 20.81200626 -7 18 C-4.04335481 16.5216774 -1.25770263 16.93967217 2 17 C1.77183594 16.19175781 1.54367188 15.38351563 1.30859375 14.55078125 C1.02113281 13.48214844 0.73367187 12.41351563 0.4375 11.3125 C0.14746094 10.25675781 -0.14257812 9.20101562 -0.44140625 8.11328125 C-1 5 -1 5 0 0 Z M4 37 C4 42.61 4 48.22 4 54 C2.576875 54.350625 1.15375 54.70125 -0.3125 55.0625 C-13.66584116 59.13065471 -25.10903469 69.19579672 -31.75 81.40234375 C-37.82200677 94.02073282 -39.32337065 108.87159893 -35.875 122.6171875 C-32.26682028 132.44303406 -26.67680065 140.89806117 -19 148 C-18.48931976 148.49812195 -17.97863953 148.9962439 -17.45248413 149.50946045 C-11.43180435 154.76361779 -6.05252057 154.89259081 1.71484375 154.83203125 C2.92515762 154.84014328 4.1354715 154.84825531 5.38246155 154.85661316 C7.93327269 154.86505026 10.48417434 154.85826531 13.03491211 154.8371582 C16.92283659 154.81259265 20.8057759 154.85728697 24.69335938 154.90820312 C27.17969165 154.9078326 29.6660273 154.90340981 32.15234375 154.89453125 C33.30572739 154.91183792 34.45911102 154.92914459 35.64744568 154.94697571 C43.8152706 154.80641997 48.19949802 152.70681622 54 147 C54.88171875 146.15695313 55.7634375 145.31390625 56.671875 144.4453125 C68.89017144 130.80307926 71.92563935 117.19290225 71.17480469 99.22119141 C70.13874129 86.05624058 62.73877179 74.88083921 53.37890625 65.99609375 C46.41591666 60.15358524 38.27247918 56.60595247 30 53 C29.67 47.72 29.34 42.44 29 37 C20.75 37 12.5 37 4 37 Z " fill="#1AE8AC" transform="translate(111,56)"></path><path d="M0 0 C0.33 1.32 0.66 2.64 1 4 C1.66 4 2.32 4 3 4 C2.96519531 5.918125 2.96519531 5.918125 2.9296875 7.875 C2.91091467 9.58332745 2.89271611 11.29166127 2.875 13 C2.85824219 13.83917969 2.84148437 14.67835938 2.82421875 15.54296875 C2.70812734 30.51876092 9.26335921 42.11310508 18.91796875 53.203125 C27.76924498 61.18603161 38.26903163 60.21278429 49.58789062 60.04296875 C52.99378189 60.0000783 56.39124187 60.04265568 59.796875 60.09375 C74.65154201 60.31536407 74.65154201 60.31536407 87.09423828 53.09326172 C87.72313965 52.40248535 88.35204102 51.71170898 89 51 C89.6919043 50.31583008 90.38380859 49.63166016 91.09667969 48.92675781 C100.36664317 39.53462018 104.13960052 26.81246664 104.10229492 13.88671875 C104.0761194 12.27571966 104.03503089 10.66488188 103.9777832 9.0546875 C103.80432188 3.29351718 103.80432188 3.29351718 106 0 C109.73969916 14.95879663 106.74934268 30.65414807 99.375 43.875 C96.01615611 49.35609848 91.87393897 53.82465895 87 58 C85.82981323 59.03241821 85.82981323 59.03241821 84.63598633 60.08569336 C79.7995184 63.24488744 74.05545385 62.63043354 68.48046875 62.63671875 C67.26732498 62.64766068 66.05418121 62.6586026 64.80427551 62.6698761 C62.24154908 62.68571986 59.67873796 62.69094385 57.1159668 62.6862793 C53.21063293 62.68749281 49.30905591 62.74725308 45.40429688 62.81054688 C42.90886329 62.81869033 40.41341547 62.82336108 37.91796875 62.82421875 C36.758311 62.84779953 35.59865326 62.87138031 34.40385437 62.89567566 C26.19433988 62.80335968 21.83321637 60.73092839 16 55 C15.21367188 54.27554688 14.42734375 53.55109375 13.6171875 52.8046875 C0.55225763 38.33366652 -1.34107606 24.63119994 -1.14526367 6.03955078 C-0.99478916 3.92683799 -0.57331708 2.03534713 0 0 Z " fill="#395251" transform="translate(75,148)"></path><path d="M0 0 C1.31563683 0.00607269 1.31563683 0.00607269 2.65785217 0.01226807 C3.5579451 0.01035461 4.45803802 0.00844116 5.38540649 0.00646973 C7.29108459 0.00510734 9.19677194 0.0088075 11.10243225 0.01715088 C14.02150838 0.02783724 16.93996731 0.01726385 19.85902405 0.00445557 C21.70863478 0.0057774 23.55824514 0.00834028 25.40785217 0.01226807 C26.72045265 0.00619537 26.72045265 0.00619537 28.05957031 0 C28.87373917 0.00630432 29.68790802 0.01260864 30.52674866 0.019104 C31.24241501 0.02069519 31.95808136 0.02228638 32.69543457 0.02392578 C34.59925842 0.27789307 34.59925842 0.27789307 37.59925842 2.27789307 C38.03675842 4.71539307 38.03675842 4.71539307 37.59925842 7.27789307 C35.1765636 9.96140719 33.08861503 10.48810894 29.61268616 10.66607666 C28.00285901 10.68582604 26.39275664 10.68820931 24.78285217 10.67633057 C23.50354576 10.68063583 23.50354576 10.68063583 22.19839478 10.68502808 C20.39882237 10.6870663 18.59922769 10.68155335 16.79969788 10.66900635 C14.04292934 10.65292905 11.28762246 10.66887297 8.53089905 10.68804932 C6.78154685 10.68606723 5.03219556 10.68222427 3.28285217 10.67633057 C2.45780685 10.68240326 1.63276154 10.68847595 0.78271484 10.69473267 C-4.96401704 10.62394219 -4.96401704 10.62394219 -7.12228394 8.91378784 C-8.40074158 7.27789307 -8.40074158 7.27789307 -8.71324158 4.71539307 C-8.03030891 -0.61148174 -4.57139623 0.03553509 0 0 Z " fill="#3A4F50" transform="translate(113.40074157714844,77.72210693359375)"></path><path d="M0 0 C0.33 1.32 0.66 2.64 1 4 C1.66 4 2.32 4 3 4 C2.96519531 5.918125 2.96519531 5.918125 2.9296875 7.875 C2.91091467 9.58332745 2.89271611 11.29166127 2.875 13 C2.85824219 13.83917969 2.84148437 14.67835938 2.82421875 15.54296875 C2.76715293 22.90445943 3.90306026 29.16859209 7.125 35.875 C9 39.80291971 9 39.80291971 9 42 C7.515 42.495 7.515 42.495 6 43 C-1.03528585 30.37944905 -4.01246406 14.24474772 0 0 Z " fill="#395453" transform="translate(75,148)"></path><path d="M0 0 C1.32 0.33 2.64 0.66 4 1 C4 1.66 4 2.32 4 3 C4.99 3.33 5.98 3.66 7 4 C7 5.32 7 6.64 7 8 C6.01 8 5.02 8 4 8 C3.67 9.32 3.34 10.64 3 12 C1.68 11.67 0.36 11.34 -1 11 C-1 10.01 -1 9.02 -1 8 C-2.32 7.67 -3.64 7.34 -5 7 C-4.34 5.68 -3.68 4.36 -3 3 C-2.34 3 -1.68 3 -1 3 C-0.67 2.01 -0.34 1.02 0 0 Z " fill="#1BE1A8" transform="translate(108,41)"></path><path d="M0 0 C1.32 0.33 2.64 0.66 4 1 C4 1.99 4 2.98 4 4 C4.99 4 5.98 4 7 4 C6.67 5.65 6.34 7.3 6 9 C5.34 9 4.68 9 4 9 C3.67 9.99 3.34 10.98 3 12 C1.68 11.67 0.36 11.34 -1 11 C-1 10.34 -1 9.68 -1 9 C-1.99 8.67 -2.98 8.34 -4 8 C-4 6.68 -4 5.36 -4 4 C-3.01 4 -2.02 4 -1 4 C-0.67 2.68 -0.34 1.36 0 0 Z " fill="#1BE3A9" transform="translate(94,54)"></path><path d="M0 0 C1.86707956 2.74570524 1.99611083 4.05347608 1.75 7.4375 C1.10158414 10.51747534 0.29781631 13.14480413 -1 16 C-1.66 15.67 -2.32 15.34 -3 15 C-2.86722656 14.41992188 -2.73445312 13.83984375 -2.59765625 13.2421875 C-1.60295999 8.84229018 -0.68631668 4.46105842 0 0 Z " fill="#346A60" transform="translate(179,169)"></path><path d="M0 0 C0.33 1.32 0.66 2.64 1 4 C1.66 4 2.32 4 3 4 C2.67 5.32 2.34 6.64 2 8 C1.67 7.34 1.34 6.68 1 6 C0.67 11.61 0.34 17.22 0 23 C-0.33 23 -0.66 23 -1 23 C-1.02911321 19.9166866 -1.04683682 16.83340875 -1.0625 13.75 C-1.07087891 12.87730469 -1.07925781 12.00460938 -1.08789062 11.10546875 C-1.09111328 10.26113281 -1.09433594 9.41679687 -1.09765625 8.546875 C-1.10551147 7.38430176 -1.10551147 7.38430176 -1.11352539 6.19824219 C-1.00036998 4.00716402 -0.60552448 2.10362139 0 0 Z " fill="#35685F" transform="translate(75,148)"></path><path d="M0 0 C1.98 0.495 1.98 0.495 4 1 C3.67 2.32 3.34 3.64 3 5 C1.68 4.67 0.36 4.34 -1 4 C-0.67 2.68 -0.34 1.36 0 0 Z " fill="#385855" transform="translate(164,154)"></path><path d="M0 0 C0.33 0 0.66 0 1 0 C1.33 2.64 1.66 5.28 2 8 C1.34 8 0.68 8 0 8 C-0.33 8.66 -0.66 9.32 -1 10 C-2.23076923 4.58461538 -2.23076923 4.58461538 -1.0625 1.625 C-0.5365625 0.820625 -0.5365625 0.820625 0 0 Z " fill="#336E62" transform="translate(77,171)"></path><path d="M0 0 C0.33 0 0.66 0 1 0 C1.33 2.97 1.66 5.94 2 9 C1.01 9 0.02 9 -1 9 C-0.67 6.03 -0.34 3.06 0 0 Z " fill="#35675E" transform="translate(180,148)"></path></svg></g></g><defs><clipPath id="SvgjsClipPath1053"><rect width="1000" height="1000" x="0" y="0" rx="500" ry="500"></rect></clipPath></defs></svg>